<svg width="34" height="34" viewBox="0 0 34 34" fill="none" xmlns="http://www.w3.org/2000/svg">
<g id="Group 7905">
<path id="Vector" d="M17.3726 33.39C26.2188 33.39 33.0866 25.9154 32.7124 16.695C32.3381 7.47461 24.8635 0 16.0174 0C7.17122 0 0.303381 7.47461 0.677621 16.695C1.05186 25.9154 8.52647 33.39 17.3726 33.39Z" fill="#77BF00"/>
<path id="Vector_2" d="M20.6684 9.47795C19.7144 9.02921 18.5842 9.01207 16.9436 9.42801L16.9181 9.43394L16.1233 6.33914L14.4579 6.76439L15.256 9.86485C14.7593 9.99674 14.2113 10.142 13.6742 10.2909L12.8765 7.16507L11.2085 7.58803L11.9999 10.7226C11.4173 10.8953 8.58687 11.5702 8.58687 11.5702L9.01958 13.3924L11.182 12.8904L13.5111 22.0091L11.3691 22.5094L11.8188 24.3633C11.8188 24.3633 14.6533 23.7238 15.2984 23.5918L16.0947 26.7436L17.7601 26.3184L16.9686 23.2141C17.529 23.0945 18.0848 22.9474 18.572 22.8385L19.3464 25.9262L21.0118 25.501L20.2424 22.4633C22.0671 21.9498 23.261 21.2378 23.8868 20.2723C24.1498 19.8532 24.3231 19.3841 24.3959 18.8947C24.4686 18.4054 24.4393 17.9062 24.3096 17.4287C23.8285 15.5249 22.1581 14.873 20.8754 14.8797L20.8678 14.8425C22.0777 14.0055 22.6142 12.7151 22.3012 11.4797C22.0449 10.4645 21.4532 9.80156 20.6684 9.47795ZM19.9484 18.3543C20.2296 19.4671 19.5242 20.5151 17.9642 20.9135L16.629 21.2501L15.687 17.5428C16.0968 17.3534 16.525 17.2066 16.9648 17.1047C18.4536 16.7311 19.6079 17.0037 19.9484 18.3543ZM18.6865 12.946C18.7677 13.2437 18.7702 13.5574 18.6936 13.8563C18.617 14.1552 18.464 14.429 18.2496 14.6509C17.9094 15.0299 17.3907 15.3306 16.7085 15.5029L16.699 15.5084L15.3712 15.8445L14.432 12.1356C14.8417 11.948 15.2694 11.8027 15.7086 11.702C15.7143 11.6987 15.7181 11.6965 15.7237 11.6933C16.3937 11.528 16.9923 11.4921 17.48 11.6259C18.0735 11.7906 18.5025 12.2088 18.6865 12.946Z" fill="white"/>
</g>
</svg>
