<svg width="34" height="34" viewBox="0 0 34 34" fill="none" xmlns="http://www.w3.org/2000/svg">
<g id="Group 7901">
<path id="Vector" d="M16.9618 33.39C26.0349 33.39 33.2705 25.9154 33.1232 16.695C32.9758 7.47461 25.5012 0 16.4282 0C7.35515 0 0.119455 7.47461 0.26681 16.695C0.414165 25.9154 7.88877 33.39 16.9618 33.39Z" fill="#F7931A"/>
<path id="Vector_2" d="M23.6543 12.5511C23.0448 11.6746 22.0621 11.0873 20.4125 10.6214L20.3871 10.6137L21.2572 7.4972L19.581 7.02691L18.711 10.15C18.2086 10.0142 17.6543 9.8641 17.1077 9.72279L17.991 6.5776L16.3138 6.104L15.4205 9.25361C14.822 9.11009 11.9976 8.26887 11.9976 8.26887L11.4543 10.086L13.6052 10.7406L11.0303 19.9168L8.89815 19.271L8.35379 21.1245C8.35379 21.1245 11.1639 21.9989 11.7966 22.2097L10.8989 25.377L12.5751 25.8473L13.4529 22.7242C14.005 22.903 14.567 23.0553 15.0495 23.2066L14.1651 26.3065L15.8412 26.7768L16.7047 23.7232C18.5652 24.1968 19.973 24.177 21.0109 23.6471C21.4538 23.4127 21.8434 23.0891 22.155 22.6967C22.4667 22.3044 22.6937 21.8518 22.8218 21.3674C23.3639 19.4542 22.2289 18.0367 21.1004 17.3931L21.1125 17.3567C22.5976 17.2353 23.7217 16.3753 24.0728 15.1333C24.3621 14.1132 24.1788 13.2323 23.6543 12.5511ZM18.5277 19.9709C18.2108 21.0892 17.0613 21.6511 15.4912 21.2106L14.1496 20.8298L15.2008 17.1017C15.6562 17.143 16.1061 17.2311 16.5435 17.3644C18.0385 17.7905 18.913 18.6141 18.5277 19.9709ZM20.1596 14.5891C20.0802 14.8913 19.9235 15.1676 19.7049 15.391C19.4864 15.6143 19.2135 15.777 18.913 15.863C18.4228 16.0231 17.8155 16.0242 17.1298 15.8299H17.1187L15.7838 15.4524L16.8383 11.7243C17.2926 11.7671 17.7414 11.8563 18.1776 11.9903C18.1843 11.9903 18.1887 11.9903 18.1953 11.9903C18.8666 12.1846 19.4099 12.4562 19.7699 12.8205C20.2071 13.2654 20.3716 13.8494 20.1596 14.5891Z" fill="white"/>
</g>
</svg>
