<svg width="34" height="34" viewBox="0 0 34 34" fill="none" xmlns="http://www.w3.org/2000/svg">
<g id="Group 7902">
<path id="Vector" d="M33.3867 16.6934C33.3867 7.47388 25.9128 1.03114e-05 16.6934 1.07144e-05C7.47387 1.11174e-05 -1.13269e-06 7.47388 -7.2969e-07 16.6934C-3.26693e-07 25.9128 7.47387 33.3867 16.6934 33.3867C25.9128 33.3867 33.3867 25.9128 33.3867 16.6934Z" fill="#3E7DDD"/>
<path id="Vector_2" d="M25 18L17 15.0776V7.05219L17.0391 7L25 18Z" fill="#C0CCF7"/>
<path id="Vector_3" d="M25 18.0858L17.0385 22L17 21.9811V15L24.8935 17.9354L25 18.0858Z" fill="#A6B9FF"/>
<path id="Vector_4" d="M17 7V14.9894L9 18L17 7Z" fill="white"/>
<path id="Vector_5" d="M25 19L17 22.8129V27.9499L17.0391 28L25 19Z" fill="#C0CCF7"/>
<path id="Vector_6" d="M17 28V22.8901L9 19L17 28Z" fill="white"/>
<path id="Vector_7" d="M17 15V22L9 18.0942L9.03551 18.0459L17 15Z" fill="#C0CCF7"/>
</g>
</svg>
